<svg width="14" height="14" viewBox="0 0 14 14" fill="none" xmlns="http://www.w3.org/2000/svg">
<path fill-rule="evenodd" clip-rule="evenodd" d="M7 14C3.1339 14 0 10.8661 0 7C0 3.1339 3.1339 0 7 0C10.8661 0 14 3.1339 14 7C14 10.8661 10.8661 14 7 14ZM7 12.6C10.0928 12.6 12.6 10.0928 12.6 7C12.6 3.90721 10.0928 1.4 7 1.4C3.90721 1.4 1.4 3.90721 1.4 7C1.4 10.0928 3.90721 12.6 7 12.6ZM4.2 7.7H4.9V9.1H4.2V10.5H9.8V9.1H6.3V7.7H8.4V6.3H6.3V5.6C6.29859 5.13377 6.60499 4.72252 7.05213 4.59049C7.49928 4.45845 7.97992 4.63729 8.232 5.0295L9.6222 4.6823C9.18334 3.59404 8.03448 2.96974 6.88262 3.19359C5.73075 3.41744 4.89933 4.42658 4.9 5.6V6.3H4.2V7.7Z" fill="#FF8372"/>
</svg>
