<svg width="64" height="64" viewBox="0 0 64 64" fill="none" xmlns="http://www.w3.org/2000/svg">
<path fill-rule="evenodd" clip-rule="evenodd" d="M13.344 6.40627C14.6989 2.56734 18.3281 0 22.4 0C26.4719 0 30.1011 2.56734 31.456 6.40627H64V12.8047H31.456C30.1011 16.6436 26.4719 19.211 22.4 19.211C18.3281 19.211 14.6989 16.6436 13.344 12.8047H0V6.40627H13.344ZM41.6 22.3945C37.5281 22.3945 33.8989 24.9619 32.544 28.8008H0V35.1992H32.544C33.8989 39.0382 37.5281 41.6055 41.6 41.6055C45.6719 41.6055 49.3011 39.0382 50.656 35.1992H64V28.8008H50.656C49.3011 24.9619 45.6719 22.3945 41.6 22.3945ZM22.4 44.789C18.3281 44.789 14.6989 47.3564 13.344 51.1953H0V57.5937H13.344C14.6989 61.4327 18.3281 64 22.4 64C26.4719 64 30.1011 61.4327 31.456 57.5937H64V51.1953H31.456C30.1011 47.3564 26.4719 44.789 22.4 44.789ZM25.6 9.60549C25.6 11.3724 24.1673 12.8047 22.4 12.8047C20.6327 12.8047 19.2 11.3724 19.2 9.60549C19.2 7.83861 20.6327 6.40627 22.4 6.40627C24.1673 6.40627 25.6 7.83861 25.6 9.60549ZM41.6 35.1992C43.3673 35.1992 44.8 33.7669 44.8 32C44.8 30.2331 43.3673 28.8008 41.6 28.8008C39.8327 28.8008 38.4 30.2331 38.4 32C38.4 33.7669 39.8327 35.1992 41.6 35.1992ZM25.6 54.3945C25.6 56.1614 24.1673 57.5937 22.4 57.5937C20.6327 57.5937 19.2 56.1614 19.2 54.3945C19.2 52.6276 20.6327 51.1953 22.4 51.1953C24.1673 51.1953 25.6 52.6276 25.6 54.3945Z" fill="#0A143A"/>
</svg>
