<svg width="11" height="12" viewBox="0 0 11 12" fill="none" xmlns="http://www.w3.org/2000/svg">
<path fill-rule="evenodd" clip-rule="evenodd" d="M5.09375 12L1.58029 8.48526C-0.360108 6.54413 -0.360096 3.39695 1.58032 1.45584C3.52074 -0.485279 6.66676 -0.485279 8.60718 1.45584C10.5476 3.39695 10.5476 6.54413 8.60721 8.48526L5.09375 12ZM7.82656 7.70433C9.33566 6.19452 9.33558 3.74678 7.82638 2.23708C6.31717 0.72738 3.87033 0.72738 2.36112 2.23708C0.85192 3.74678 0.851837 6.19452 2.36094 7.70433L5.09375 10.4381L7.82656 7.70433ZM3.98958 4.97052C3.98958 5.58056 4.48394 6.07509 5.09375 6.07509C5.70356 6.07509 6.19792 5.58056 6.19792 4.97052C6.19792 4.36048 5.70356 3.86595 5.09375 3.86595C4.48394 3.86595 3.98958 4.36048 3.98958 4.97052Z" fill="#9CA0B0"/>
</svg>
