<svg width="101" height="25" viewBox="0 0 101 25" fill="none" xmlns="http://www.w3.org/2000/svg">
<path fill-rule="evenodd" clip-rule="evenodd" d="M52.2643 18.9651V5.46875H50.3572L45.3241 16.6247L40.2911 5.46875H38.3643V18.9651H40.1534V8.88186L44.695 18.9651H45.9533L50.4752 8.90136V18.9651H52.2643ZM77.0189 9.27185C76.2063 8.47871 75.1446 8.08214 73.8339 8.08214C73.0999 8.08214 72.4249 8.23167 71.8089 8.53072C71.206 8.82977 70.7276 9.25235 70.3737 9.79844V8.27717H68.5846V18.9651H70.3737V13.0555C70.3737 11.9373 70.6489 11.0857 71.1994 10.5006C71.763 9.91546 72.5167 9.62291 73.4604 9.62291C74.391 9.62291 75.125 9.90896 75.6623 10.4811C76.1997 11.0402 76.4684 11.8528 76.4684 12.919V18.9651H78.2379V12.6655C78.2379 11.1832 77.8315 10.052 77.0189 9.27185ZM90.9905 13.2116C90.9905 13.5496 90.9708 13.9072 90.9315 14.2843H82.3202C82.3858 15.3375 82.7462 16.1631 83.4016 16.7612C84.07 17.3463 84.8761 17.6389 85.8198 17.6389C86.5931 17.6389 87.2354 17.4633 87.7465 17.1123C88.2708 16.7482 88.6378 16.2671 88.8475 15.669H90.7742C90.4859 16.6962 89.9092 17.5348 89.0441 18.185C88.1791 18.8221 87.1043 19.1406 85.8198 19.1406C84.7975 19.1406 83.88 18.9131 83.0673 18.458C82.2678 18.0029 81.6387 17.3593 81.1799 16.5272C80.7212 15.682 80.4918 14.7068 80.4918 13.6016C80.4918 12.4964 80.7146 11.5278 81.1603 10.6956C81.6059 9.86348 82.2285 9.22636 83.028 8.78429C83.8407 8.32921 84.7712 8.10166 85.8198 8.10166C86.8421 8.10166 87.7465 8.3227 88.5329 8.76478C89.3194 9.20686 89.9223 9.81797 90.3417 10.5981C90.7742 11.3652 90.9905 12.2364 90.9905 13.2116ZM89.1424 12.841C89.1424 12.1649 88.9917 11.5863 88.6902 11.1052C88.3888 10.6111 87.9759 10.2405 87.4516 9.9935C86.9404 9.73345 86.3703 9.60343 85.7412 9.60343C84.8368 9.60343 84.0635 9.88948 83.4212 10.4616C82.7921 11.0337 82.4317 11.8268 82.3399 12.841H89.1424ZM98.975 18.9652L96.4191 14.9865L93.9616 18.9652H92.0938L95.5737 13.6602L92.0938 8.27727H94.1189L96.6747 12.2365L99.1126 8.27727H100.98L97.5201 13.5627L101 18.9652H98.975ZM54.63 13.5821C54.63 12.4899 54.8528 11.5343 55.2985 10.7151C55.7441 9.88298 56.3536 9.23937 57.1269 8.78429C57.9133 8.32921 58.7849 8.10166 59.7417 8.10166C60.6854 8.10166 61.5046 8.3032 62.1993 8.70627C62.8939 9.10934 63.4116 9.61643 63.7524 10.2275V8.2772H65.5612V18.9651H63.7524V16.9757C63.3985 17.5999 62.8677 18.1199 62.1599 18.536C61.4653 18.9391 60.6526 19.1406 59.722 19.1406C58.7652 19.1406 57.9002 18.9066 57.1269 18.4385C56.3536 17.9704 55.7441 17.3138 55.2985 16.4687C54.8528 15.6235 54.63 14.6613 54.63 13.5821ZM63.7524 13.6016C63.7524 12.7955 63.5886 12.0934 63.2609 11.4953C62.9332 10.8972 62.4876 10.4421 61.924 10.13C61.3735 9.80497 60.764 9.64244 60.0956 9.64244C59.4271 9.64244 58.8177 9.79847 58.2672 10.1105C57.7167 10.4226 57.2776 10.8777 56.9499 11.4758C56.6223 12.0739 56.4584 12.776 56.4584 13.5821C56.4584 14.4013 56.6223 15.1164 56.9499 15.7275C57.2776 16.3256 57.7167 16.7872 58.2672 17.1123C58.8177 17.4243 59.4271 17.5803 60.0956 17.5803C60.764 17.5803 61.3735 17.4243 61.924 17.1123C62.4876 16.7872 62.9332 16.3256 63.2609 15.7275C63.5886 15.1164 63.7524 14.4078 63.7524 13.6016Z" fill="white"/>
<path d="M1.33094 23.0469H4.88804C5.40479 23.0469 5.87481 22.7474 6.09359 22.2787L10.6282 12.5644C10.795 12.207 10.7951 11.7939 10.6282 11.4364L6.56046 2.72136C6.34169 2.25265 5.87165 1.95313 5.35489 1.95313H3.89194C3.22787 1.95313 2.66544 2.44329 2.57394 3.10179L0.0129327 21.5311C-0.0983855 22.3321 0.523103 23.0469 1.33094 23.0469Z" fill="white"/>
<path d="M23.7233 23.0469H20.1662C19.6495 23.0469 19.1795 22.7474 18.9607 22.2787L14.4261 12.5644C14.2592 12.207 14.2592 11.7939 14.4261 11.4364L18.4938 2.72136C18.7126 2.25265 19.1826 1.95312 19.6994 1.95312H21.1623C21.8264 1.95312 22.3888 2.44328 22.4803 3.10178L25.0413 21.5311C25.1526 22.3321 24.5312 23.0469 23.7233 23.0469Z" fill="white"/>
</svg>
