<svg width="26" height="25" viewBox="0 0 26 25" fill="none" xmlns="http://www.w3.org/2000/svg">
<path d="M1.33094 23.0469H4.88804C5.40479 23.0469 5.87481 22.7474 6.09359 22.2787L10.6282 12.5644C10.795 12.207 10.7951 11.7939 10.6282 11.4364L6.56046 2.72136C6.34169 2.25265 5.87165 1.95313 5.35489 1.95313H3.89194C3.22787 1.95313 2.66544 2.44329 2.57394 3.10179L0.0129327 21.5311C-0.0983855 22.3321 0.523103 23.0469 1.33094 23.0469Z" fill="white"/>
<path d="M23.7233 23.0469H20.1662C19.6495 23.0469 19.1795 22.7474 18.9607 22.2787L14.4261 12.5644C14.2592 12.207 14.2592 11.7939 14.4261 11.4364L18.4938 2.72136C18.7126 2.25265 19.1826 1.95312 19.6994 1.95312H21.1623C21.8264 1.95312 22.3888 2.44328 22.4803 3.10178L25.0413 21.5311C25.1526 22.3321 24.5312 23.0469 23.7233 23.0469Z" fill="white"/>
</svg>
