<svg width="16" height="16" viewBox="0 0 16 16" fill="none" xmlns="http://www.w3.org/2000/svg">
<path fill-rule="evenodd" clip-rule="evenodd" d="M12.7787 1.824L6.92105 0L1.06345 1.8248C0.728417 1.92905 0.500199 2.23817 0.5 2.588V9.0992C0.499835 10.6866 1.28704 12.1714 2.60289 13.0656L6.92105 16L11.2392 13.0648C11.675 12.7688 12.0523 12.4088 12.3629 12.0008L14.9474 12C15.3906 12 15.75 11.6418 15.75 11.2V4.8C15.75 4.35817 15.3906 4 14.9474 4H13.3421V2.588C13.3423 2.23788 13.114 1.92834 12.7787 1.824ZM2.10526 3.176L6.92105 1.6752L11.7368 3.176V4H6.11842C5.67514 4 5.31579 4.35817 5.31579 4.8V11.2C5.31579 11.6418 5.67514 12 6.11842 12H9.9566L6.92105 14.064L3.50746 11.7432L3.35576 11.6344C2.56699 11.0284 2.10503 10.0918 2.10526 9.0992V3.176ZM6.92105 8V10.4H14.1447V8H6.92105ZM14.1447 6.4H6.92105V5.6H14.1447V6.4Z" fill="#9CA0B0"/>
</svg>
