<svg width="16" height="16" viewBox="0 0 16 16" fill="none" xmlns="http://www.w3.org/2000/svg">
<path fill-rule="evenodd" clip-rule="evenodd" d="M15.2 0.75H0.8C0.358172 0.75 0 1.11066 0 1.55556V14.4444C0 14.8893 0.358172 15.25 0.8 15.25H15.2C15.6418 15.25 16 14.8893 16 14.4444V1.55556C16 1.11066 15.6418 0.75 15.2 0.75ZM1.6 13.6389V2.36111H14.4V13.6389H1.6ZM10.4 3.97222L13.2 6.38889L10.4 8.80556V7.19444H7.2V5.58333H10.4V3.97222ZM2.8 9.61111L5.6 12.0278V10.4167H8.8V8.80556H5.6V7.19444L2.8 9.61111Z" fill="#0045AD"/>
</svg>
